<svg xmlns="http://www.w3.org/2000/svg" viewBox="0 0 552 160"><g id="Horizontal"><g id="KLTS_-_Horizontal_-_Color_Light" data-name="KLTS - Horizontal - Color Light"><text transform="translate(192 116.055)" font-size="96" fill="#fff" font-family="Roboto-Medium, Roboto" font-weight="500">K<tspan x="60.516" y="0" letter-spacing="-0.1em">L</tspan><tspan x="102.844" y="0" letter-spacing="-0.008em">T</tspan><tspan x="160.359" y="0">S.io</tspan></text><g id="KLTS_-_Graph" data-name="KLTS - Graph"><path id="Secondary" d="M75.635,85.135a72.008,72.008,0,0,0-17.6,6.641V78.442A80.543,80.543,0,0,1,70.349,74.05q2.946-.777,5.936-1.3a21.082,21.082,0,0,0-.65,12.383ZM89.343,60.084a86.9,86.9,0,0,0-15.3-11.241l-12.118,7a94.774,94.774,0,0,1,17.393,11.41A21.034,21.034,0,0,1,89.343,60.084ZM94.5,59.059C95,59.024,95.5,59,96,59a20.9,20.9,0,0,1,10.348,2.729,62.691,62.691,0,0,0,.2-7.112A74.428,74.428,0,0,0,104.9,41.306L96,36.166l-4.122,2.38a68.769,68.769,0,0,1,2.67,16.418Q94.608,57.028,94.5,59.059ZM78.311,91.311q-1.163,2.057-2.19,4.188A81.13,81.13,0,0,0,71,109.4l10.8,6.236a72.041,72.041,0,0,1,5.864-16.359A21.074,21.074,0,0,1,78.311,91.311Zm47.237-38.086a82.752,82.752,0,0,1-14.673,11.953,20.958,20.958,0,0,1,5.7,10.581,93.82,93.82,0,0,0,17.39-13.976v-3.7ZM106.685,98.077A20.892,20.892,0,0,1,96,101q-.537,0-1.068-.027c.461,1.216.952,2.42,1.483,3.611a83.226,83.226,0,0,0,8.248,14.248l10.44-6.027A72.9,72.9,0,0,1,107.376,99.7C107.135,99.161,106.908,98.62,106.685,98.077ZM116.9,81.988a20.894,20.894,0,0,1-4.533,11.158,81.176,81.176,0,0,0,21.59,4.007V85.133a71.057,71.057,0,0,1-14.29-2.308Q118.272,82.441,116.9,81.988Z" fill="#fff"/><path id="Primary" d="M96,33.856l39.962,23.072v46.144L96,126.144,56.038,103.072V56.928L96,33.856M96,20,44.038,50v60L96,140l51.962-30V50L96,20Zm0,51a9,9,0,1,1-6.364,2.636A8.941,8.941,0,0,1,96,71m0-12a21,21,0,1,0,14.849,6.151A20.932,20.932,0,0,0,96,59Z" fill="#33de72"/><rect id="Frame" x="32" y="16" width="128" height="128" fill="none"/></g><rect id="Frame-2" data-name="Frame" width="552" height="160" fill="none"/></g></g></svg>