<svg xmlns="http://www.w3.org/2000/svg" viewBox="0 0 512 512"><g id="Vertical"><g id="KLTS_-_Vertical_-_Dark" data-name="KLTS - Vertical - Dark"><g id="KLTS_-_Graph" data-name="KLTS - Graph"><path id="Secondary" d="M220.361,216.986a126.053,126.053,0,0,0-30.794,11.621V205.274a140.921,140.921,0,0,1,21.544-7.686q5.156-1.36,10.388-2.272a36.894,36.894,0,0,0-1.138,21.67Zm23.989-43.84a152.115,152.115,0,0,0-26.774-19.671l-21.208,12.244c13.044,6.9,22.779,13.439,30.439,19.967A36.823,36.823,0,0,1,244.35,173.146Zm9.026-1.792c.868-.062,1.741-.1,2.624-.1a36.561,36.561,0,0,1,18.109,4.776,110.187,110.187,0,0,0,.342-12.446,130.369,130.369,0,0,0-2.872-23.3l-15.579-9-7.214,4.165a120.265,120.265,0,0,1,4.674,28.732Q253.563,167.8,253.376,171.354Zm-28.333,56.44q-2.034,3.6-3.831,7.329a141.937,141.937,0,0,0-8.964,24.326l18.9,10.915a126.1,126.1,0,0,1,10.261-28.629A36.885,36.885,0,0,1,225.043,227.794Zm82.665-66.65c-8.314,8.253-16.512,15.239-25.677,20.917A36.67,36.67,0,0,1,292,200.578c11.1-6.729,20.843-14.957,30.432-24.458v-6.475ZM274.7,239.635A36.564,36.564,0,0,1,256,244.75q-.941,0-1.869-.047,1.209,3.191,2.594,6.32a145.825,145.825,0,0,0,14.436,24.934l18.269-10.548a127.661,127.661,0,0,1-13.522-22.933C275.487,241.532,275.088,240.584,274.7,239.635Zm17.883-28.157a36.564,36.564,0,0,1-7.933,19.528,142.071,142.071,0,0,0,37.783,7.012V216.983a124.475,124.475,0,0,1-25.008-4.038Q294.976,212.272,292.582,211.478Z" fill="#1b1c1d" opacity="0.75"/><path id="Primary" d="M256,127.249l69.933,40.375v80.752L256,288.751l-69.933-40.375V167.624L256,127.249M256,103l-90.933,52.5v105L256,313l90.933-52.5v-105L256,103Zm0,89.25a15.75,15.75,0,1,1-11.137,4.613A15.646,15.646,0,0,1,256,192.25m0-21a36.75,36.75,0,1,0,25.986,10.764A36.635,36.635,0,0,0,256,171.25Z" fill="#1b1c1d"/><rect id="Frame" x="144" y="96" width="224" height="224" fill="none"/></g><text transform="translate(179.351 401.063)" font-size="48" fill="#1b1c1d" font-family="Roboto-Bold, Roboto" font-weight="700">K<tspan x="30.469" y="0" letter-spacing="-0.1em">L</tspan><tspan x="51.656" y="0" letter-spacing="-0.008em">T</tspan><tspan x="80.977" y="0">S.io</tspan></text><rect id="Frame-2" data-name="Frame" width="512" height="512" fill="none"/></g></g></svg>